<svg xmlns="http://www.w3.org/2000/svg" viewBox="0 0 224 78" preserveAspectRatio="xMinYMin">
  <g fill="#151616" fill-rule="evenodd" opacity=".15">
    <path d="M224 5.384h-1.66v-1.66H224zM223.718 19.618h-1.092v-1.091h1.092zM223.511 33.93h-.681v-.68h.681zM208.968 5.147h-1.193V3.956h1.193v1.191zm1.304 1.303h-3.801V2.649h3.801V6.45zM194.543 5.241h-1.382V3.86h1.382v1.381zm1.271 1.269h-3.924V2.588h3.924V6.51zM180.176 5.397h-1.687V3.709h1.687v1.688zm1.251 1.247h-4.188V2.457h4.188v4.187zM151.669 5.925h-2.746V3.181h2.746v2.744zm1.262 1.26h-5.271v-5.27h5.271v5.27zM137.293 6.068h-3.036V3.034h3.036v3.034zm1.292 1.29h-5.621V1.745h5.621v5.613zM122.88 6.173h-3.246v-3.25h3.246v3.25zm1.308 1.312h-5.865V1.621h5.865v5.864zM108.501 6.314h-3.532V2.787h3.532v3.527zm1.309 1.305h-6.152V1.478h6.152v6.141zM94.094 6.433h-3.755v-3.76h3.755v3.76zm1.308 1.308H89.03V1.363h6.372v6.378zM79.714 6.57h-4.041V2.527h4.041V6.57zm1.31 1.309h-6.659V1.22h6.659v6.659zM51.279 7.171h-5.242v-5.24h5.242v5.24zm1.306 1.308H44.73V.62h7.855v7.859zM36.984 7.394h-5.695V1.699h5.695v5.695zm1.305 1.316h-8.308V.394h8.308V8.71zM22.664 7.599h-6.093V1.508h6.093v6.091zm1.306 1.306h-8.708V.197h8.708v8.708zM8.343 7.796H1.849v-6.49h6.494v6.49zm1.309 1.308H.541V0h9.111v9.104zM209.625 20.326h-2.509v-2.512h2.509zM194.038 19.254h-.367v-.366h.367v.366zm1.056 1.058h-2.481V17.83h2.481v2.482zM179.572 19.311h-.485v-.483h.485v.483zm1.019 1.02h-2.518v-2.522h2.518v2.522zM150.831 19.607h-1.076v-1.073h1.076v1.073zm1.03 1.032h-3.135v-3.135h3.135v3.135zM136.411 19.71h-1.273v-1.277h1.273v1.277zm1.086 1.085h-3.444v-3.447h3.444v3.447zM122.019 19.83h-1.529v-1.523h1.529v1.523zm1.172 1.175h-3.871v-3.868h3.871v3.868zM107.593 19.928h-1.717v-1.715h1.717v1.715zm1.271 1.272H104.6v-4.259h4.264V21.2zM50.343 20.757h-3.377v-3.373h3.377v3.373zm1.273 1.27h-5.922v-5.916h5.922v5.916zM36.068 21h-3.861v-3.86h3.861V21zm1.287 1.292h-6.434v-6.438h6.434v6.438zM21.837 21.292h-4.441v-4.441h4.441v4.441zm1.311 1.31h-7.061v-7.06h7.061v7.06zM194.554 34.293h-1.403v-1.401h1.403zM180.033 34.292h-1.399V32.89h1.399zM165.554 34.33h-1.482v-1.485h1.482zM151.11 34.408h-1.632v-1.629h1.632zM136.663 34.48h-1.781V32.7h1.781zM122.263 34.595h-2.018V32.58h2.018zM107.828 34.686h-2.187v-2.19h2.187zM77.96 33.858h-.532v-.532h.532v.532zm1.11 1.111h-2.749v-2.753h2.749v2.753zM63.726 34.14h-1.097v-1.1h1.097v1.1zm1.099 1.1h-3.299v-3.303h3.299v3.303zM49.412 34.347h-1.511v-1.508h1.511v1.508zm1.115 1.118h-3.742v-3.742h3.742v3.742zM6.628 35.122H3.565V32.06h3.063v3.062zm1.235 1.23h-5.53v-5.524h5.53v5.524zM121.681 48.538h-.855v-.853h.855zM107.186 48.561h-.904v-.902h.904zM92.722 48.615h-1.016v-1.014h1.016zM78.302 48.719h-1.215v-1.214h1.215zM64.06 48.994h-1.768v-1.77h1.768zM34.513 48.491h-.756v-.758h.756v.758zm.871.872H32.89v-2.498h2.494v2.498zM20.181 48.673h-1.129v-1.125h1.129v1.125zm.924.928h-2.977v-2.979h2.977v2.979zM5.825 48.833H4.37v-1.448h1.455v1.448zm1.015 1.02H3.356v-3.488H6.84v3.488zM92.475 62.892h-.519v-.523h.519zM49.214 63.192h-1.119v-1.123h1.119zM34.79 63.288h-1.311v-1.312h1.311zM19.77 62.786h-.312v-.311h.312v.311zm.653.651H18.81v-1.611h1.613v1.611zM5.366 62.901h-.539v-.542h.539v.542zm.733.731H4.093v-2.009h2.006v2.009zM34.499 77.515h-.73v-.731h.73zM20.068 77.601h-.902v-.9h.902zM5.634 77.685H4.556V76.61h1.078z"/>
  </g>
</svg>