<svg xmlns="http://www.w3.org/2000/svg" fill-rule="evenodd" stroke-linecap="square" clip-rule="evenodd" viewBox="0 0 564 364" preserveAspectRatio="xMidYMin">
  <path fill="none" stroke="#cbcbcb" d="M.5 189.5h563"/>
  <path fill="#151616" fill-opacity=".2" d="M18.8 108.4h2.9v-2.9h-2.9v2.9zm1.1 13.4h.7v-.7h-.7v.7zm-1.3 1.3h3.3v-3.3h-3.3v3.3zm1.3 13.2h.7v-.7h-.7v.7zm-1.3 1.3h3.3v-3.3h-3.3v3.3zm1.1 13.4h1v-1h-1v1zm-1.3 1.3H22v-3.6h-3.6v3.6zm1.3 13.3h1.1v-1.2h-1.1v1.2zm-1.3 1.3H22V163h-3.7v3.8l.1.1zm1.6 12.9h.5v-.6H20v.6zm-1.3 1.3h3v-3.2h-3v3.2zM121.4 20.6h1.5V19h-1.5v1.6zm14.6-.1h1.3v-1.4H136v1.4zm14.6-.1h1.2v-1.2h-1.2v1.2zm14.6-.1h1v-1h-1v1zm14.4.2h1.3v-1.4h-1.3v1.4zm14.5-.1h1.3v-1.3h-1.3v1.3zM77.9 35h1.4v-1.4h-1.4V35zm14 .5h2.4v-2.4h-2.4v2.4zm14.4.2h2.7v-2.8h-2.7v2.8zm14.5 0h2.7V33h-2.7v2.7zm14.6-.1h2.6V33h-2.6v2.6zm14.5 0h2.6V33h-2.6v2.6zm15.6-1.1h.4v-.4h-.4v.4zm-1 1h2.5V33h-2.6v2.6l.1-.1zm15.5-1h.4v-.4h-.4v.4zm-1 1h2.5V33H179v2.6-.1zm29.5-.4h1.5v-1.6h-1.5v1.6zm14.6-.1h1.4v-1.4h-1.4V35zm14.6-.1h1.2v-1.2h-1.2v1.2zm14.7-.2h.9v-.8h-.9v.8zm14.6-.1h.6V34h-.6v.6zM34.5 49.3h1v-1h-1v1zm14.4.2h1.3v-1.3h-1.3v1.3zm14.2.3H65v-1.9h-1.9v1.9zm14.4.1h2.2v-2.2h-2.2v2.2zm14.3.2h2.6v-2.6h-2.6v2.6zm14.4.2h2.9v-2.9h-2.9v2.9zM122 49h.4v-.4h-.5v.5l.1-.1zm-1.4 1.4h3v-3.1h-3v3.1zm15.2-.7h1.8V48h-1.8v1.8-.1zm-1.3 1.3h4.4v-4.4h-4.4V51zm16-1.5h1.3v-1.3h-1.3v1.3zm-1.2 1.2h3.8V47h-3.8v3.8-.1zm16-1.4h.9v-1h-1v1h.1zm-1.3 1.2h3.4v-3.3H164v3.3zm16-1.4h.5v-.6h-.6v.6h.1zm-1.3 1.2h3v-3h-3v3zm15.8-1.3h.5v-.4h-.5v.5-.1zm-1.2 1.3h2.9v-3h-2.9v3zm15.7-1.2h.6v-.6h-.6v.6zm-1.2 1.2h3v-3h-3v3zm15.7-1.2h.6v-.6h-.6v.6zm-1.3 1.3h3.1v-3.1h-3v3l-.1.1zm15.8-1.3h.6v-.6h-.6v.6zm-1 1h2.7v-2.6h-2.8v2.7l.1-.1zm29.9-.8h.9v-.9h-.9v.9zm14.6-.1h.7v-.7h-.7v.7zM34.3 64.1h1.5v-1.5h-1.5v1.5zm14.4.1h1.8v-1.7h-1.8v1.7zm15.1-.6h.6v-.5h-.6v.5zm-1.2 1.2h3v-2.9h-3v2.9zm29.8-.8h1.4v-1.3h-1.4V64zm-1.3 1.3h4v-4h-4v4zm15.8-1.2h1.5v-1.5h-1.5v1.5zm-1.3 1.3h4.1v-4.1h-4.1v4.1zm15.7-1.2h1.7v-1.7h-1.7v1.7zm-1.3 1.3h4.3v-4.3H120v4.3zm15.8-1.3h1.8v-1.7h-1.8v1.7zm-1.3 1.3h4.4v-4.3h-4.4v4.3zm15.7-1.1h2v-2h-2v2zm-1.3 1.3h4.6V61H149v4.7h-.1zm15.7-1.3h2.2v-2.1h-2.2v2.1zm-1.3 1.3h4.8V61h-4.8v4.7zm15.7-1.2h2.4v-2.3h-2.3v2.3h-.1zm-1.2 1.3h5v-5h-5v5zm16.1-1.6h1.7v-1.7H194v1.7h-.1zm-1.3 1.3h4.3v-4.3h-4.3v4.3zm15.9-1.4h1.5v-1.5h-1.5v1.5zm-1.3 1.3h4.1v-4.1h-4.1v4.1zm15.2-.7h2.8V62h-2.8v2.7zm-1.3 1.3h5.4v-5.3H221V66h.1zm15.8-1.2h2.8v-2.9H237v2.9h-.1zm-1.3 1.3h5.4v-5.5h-5.4v5.5zm16.9-2.4h.7V63h-.7v.7zm-1.1 1h2.9V62h-2.9v2.9-.2zm15.6-1h.7V63h-.7v.7zm-.9.9h2.5V62H266v2.5l.1.1zm30.1-1.1h.4v-.3h-.4v.3zm-.5.6h1.4v-1.5h-1.4v1.5zm15.1-.6h.3v-.3h-.3v.3zm-.4.4h1v-1h-1v1zM33.8 79.1h2.5v-2.5h-2.5v2.5zM49.3 78h.5v-.3h-.5v.4-.1zm-1.2 1.3H51v-2.9h-3v2.9h.1zm57.9.1h3.2v-3.1h-3.1v3.1h-.1zm-1.2 1.3h5.7V75h-5.7v5.7zM178 80h4.4v-4.3H178v4.4-.1zm-1.3 1.4h7v-7h-7v7zm15.8-1.4h4.5v-4.4h-4.5v4.5-.1zm-1.3 1.4h7v-7h-7v7zm15.8-1.3h4.5v-4.5H207v4.5zm-1.3 1.3h7.1v-7h-7v7h-.1zm15.8-1.2h4.6v-4.7h-4.6v4.7zm-1.4 1.3h7.3v-7.3h-7.3v7.3zm16.8-2.2h2.9v-2.9h-3v3l.1-.1zm-1.4 1.3h5.6v-5.5h-5.6v5.5zm15.9-1.3h2.9v-2.9h-3v3l.1-.1zm-1.3 1.3h5.4v-5.4h-5.4v5.4zm15.9-1.3h2.7v-2.8H266v2.8zm-1.2 1.1h5.1v-5h-5.1v5zm15.9-1.4h2.4v-2.3h-2.4v2.4-.1zm-1 1h4.4v-4.3h-4.4v4.4-.1zm15.7-1.1h2v-2h-2v2zm-.9.8h3.7V76h-3.7v3.7zm15.9-1.4h1v-1h-1v1zm-.6.7h2.3v-2.3h-2.3V79zm15.2-.8h.8v-.7h-.7v.7h-.1zm-.5.5h1.8V77h-1.8v1.7zm14.9-.3h1v-1h-1v1zm-.4.4h2v-2h-2v2zm15.1-.6h.7v-.7h-.7v.7zm-.4.4h1.5V77h-1.5v1.6zm73.1-.6h.5v-.3h-.5v.4-.1zm-.4.6h1.4v-1.4h-1.4v1.4zm44-.6h.4v-.3h-.4v.3zm-1 1h2.4v-2.3h-2.4V79zm14.4.2h2.7v-2.7h-2.7v2.7zm15.6-1.2h.5v-.4h-.5v.5-.1zm-1.3 1.4h3.1v-3h-3v3h-.1zm14.7-.1h2.8v-2.9h-2.8v2.9zm14.6-.2h2.6v-2.5h-2.6v2.5zM49 93h1.2v-1.2H49V93zm-1.4 1.3h3.9v-3.8h-3.9v3.8zm15.6-1H65v-1.8h-1.8v1.8zm-1.3 1.3h4.4v-4.4h-4.4v4.4zm15.5-1.1h2.4v-2.3h-2.4v2.3zm-1.3 1.4h5v-5h-5v5zm15.5-1h3v-3h-3v3zm-1.3 1.3h5.6v-5.6h-5.6v5.6zm58.7-.7h4.3v-4.2h-4.2v4.2h-.1zm-1.2 1.3h6.8V89h-6.8v6.8zm15.2-.7h5.4v-5.4H163v5.4zm-1.3 1.3h8v-8h-8v8zm16.3-1.7h4.5V90H178v4.7zm-1.4 1.3h7.2v-7.2h-7.2V96zm15.2-.7h5.9v-5.8h-5.9v5.8zm-1.3 1.3h8.5v-8.5h-8.5v8.5zm60.1-2h4.4v-4.4h-4.4v4.4zm-1.3 1.3h7v-7h-7v7zm15.5-.9h5.1v-5.2h-5.1V95zm-1.3 1.3h7.7v-7.8h-7.7v7.8zm15.9-1.4h5v-5h-5v5zm-1.2 1.2h7.4v-7.4h-7.4v7.4zm31.2-2.2h3v-3h-3v3zm-1 1h5v-5h-5v5zm45-1.4h2.2v-2.2h-2.2v2.2zm-.7.6h3.5v-3.5h-3.5v3.5zm15.1-.5h2.4v-2.4h-2.4v2.4zm-.6.6h3.5v-3.6h-3.5v3.6zm15.7-1.2h1.3v-1.3h-1.3V93zm-.6.6h2.4v-2.4h-2.4v2.4zm15.1-.6h1.3v-1.2h-1.3V93zm-.6.6h2.5v-2.4h-2.5v2.4zm15.1-.6h1.3v-1.3H412v1.4l-.1-.1zm-.7.7h2.7V91h-2.7v2.7zm15.2-.7h1.3v-1.2h-1.3V93zm-.7.8h2.8V91h-2.8v2.8zm15.2-.8h1.4v-1.3h-1.4v1.4-.1zm-1 1h3.3v-3.2H440V94h-.1zm15.5-.9h1.4v-1.4h-1.4v1.4zm-1.1 1h3.6v-3.5h-3.6v3.6-.1zM470 93h1.2v-1.2H470V93zm-1.2 1.3h3.7v-3.8h-3.7v3.8zm15.9-1.4h1v-1h-1v1zm-1.4 1.3h3.6v-3.6h-3.6v3.6zM499 93h1.3v-1.3H499v1.4-.1zm-1.3 1.4h4v-4h-4v4zm15.1-.6h2.8V91h-2.8v2.8zm15.6-1.1h.6v-.6h-.6v.6zM527 94h3.2v-3.2H527V94zM48.3 108.1h2.5v-2.4h-2.5v2.4zm-1.3 1.3h5v-5h-5v5zm15.6-1h3v-3h-3v3zm-1.3 1.3h5.5V104h-5.5v5.7zm15.5-1h3.6v-3.6h-3.6v3.6zm-1.3 1.3h6.2v-6.2h-6.2v6.2zm15.5-1h4.2v-4.2H91v4.2zm-1.3 1.3h6.8v-6.8h-6.8v6.8zm15.7-1.1h4.5v-4.5h-4.5v4.5zm-1.3 1.3h7v-7.2h-7v7.2zm15.6-1.2h4.9v-4.8h-4.9v4.8zm-1.3 1.3h7.5v-7.4h-7.5v7.4zm15.6-1.1h5.3v-5.2H134v5.2zm-1.2 1.3h7.8V103h-7.8v7.8zm15.7-1.2h5.4v-5.4h-5.4v5.4zm-1.3 1.4h8v-8.1h-8v8.1zm15.7-1.2h5.7V104h-5.7v5.8zm-1.3 1.3h8.3v-8.4h-8.3v8.4zm30.2-1.3h5.9V104h-5.9v5.8zm-1.3 1.4h8.5v-8.5h-8.5v8.5zm59.2-1.2h6.2v-6.2h-6.2v6.2zm-1.3 1.3h8.8v-8.8h-8.8v8.8zm15.9-1.3h6.1v-6.2h-6.1v6.2zm-1.3 1.3h8.7v-8.8H263v8.8zm15.7-1.3h6.4v-6.3h-6.4v6.4-.1zm-1.3 1.4h9v-9h-9v9zm30-1h7v-7h-7v7zm-1.2 1.2h9.4v-9.4h-9.4v9.4zM337 110h6v-6h-6v6zm-1 1h8v-8.1h-8v8.1zm15.7-1.3h5.5V104h-5.5v5.7zm-1 1h7.5v-7.5h-7.5v7.5zm15.7-1.2h5.1v-5.1h-5v5l-.1.1zm-.9.9h7v-7h-7v7zm16.3-1.7h3.4v-3.5h-3.4v3.5zm-1 .9h5.4v-5.4h-5.4v5.4zm29.9-.9h3.7v-3.6h-3.7v3.6zm-1 1h5.7v-5.6h-5.7v5.6zm15.7-1.1h3.4v-3.4h-3.4v3.4zm-1.2 1.2h5.7V104h-5.7v5.8zm45.2-1.7h2.4v-2.4h-2.4v2.4zm-1.3 1.3h5v-5h-5v5zm45.2-1.6h1.8V106h-1.8v1.8zM512 109h4.4v-4.4H512v4.4zm16-1.4h1.4v-1.3H528v1.3zm-1.3 1.3h4v-4h-4v4zm15.1-.5h2.9v-2.9h-2.9v2.9zM33.7 122.8h2.7v-2.7h-2.7v2.7zm-1.3 1.3h5.3v-5.3h-5.3v5.3zm15.7-1.3H51V120h-3v2.8h.1zm-1.3 1.4h5.5v-5.5h-5.5v5.5zm15.4-.9H66v-3.8h-3.8v3.8zm-1.3 1.3h6.4v-6.4h-6.4v6.4zm15.4-.8h4.6V119h-4.6v4.8zm-1.4 1.3h7.3v-7.3H75v7.3h-.1zm15.5-1h5.4v-5.4h-5.4v5.4zm-1.3 1.3h8v-8h-8v8zm30.1-1h6v-6h-6v6zm-1.3 1.3h8.5v-8.6H118v8.6h-.1zm15.5-1h6.5v-6.5h-6.5v6.5zm-1.3 1.3h9.1v-9.1h-9v9l-.1.1zm30.1-1.1h7v-7h-7v7zm-1.3 1.3h9.6v-9.6h-9.6v9.6zm15.6-1h7.5v-7.5h-7.5v7.5zm-1.3 1.3h10.1v-10.1h-10.1v10.1zm15.6-1.2h7.9v-7.8h-7.8v7.8h-.1zm-1.3 1.3H200v-10.4h-10.5v10.4zm15.8-1.2h8v-8h-8v8zm-1.4 1.3h10.7v-10.6h-10.7v10.6zm15.8-1.1h8.2v-8.3h-8.2v8.3zm-1.4 1.3h11v-11h-11v11zm15.7-1.3h8.5v-8.4h-8.4v8.4h-.1zm-1.2 1.3h11v-11h-11v11zm16.2-1.6h7.7v-7.7H249v7.7zm-1.3 1.3H258v-10.3h-10.3v10.3zm30.3-1.3h7.8v-7.8H278v7.8zm-1.3 1.3H287v-10.4h-10.4v10.4h.1zm15.2-.6h9v-9.1h-9v9.1zm-1.3 1.3h11.6v-11.7h-11.6v11.7zm15.7-1.3h9.2v-9.2h-9.2v9.2zm-1.3 1.3h11.8v-11.8H305v11.8zm30.5-1.5h8.9V117h-8.9v8.8zm-1.2 1.3h11.3v-11.3h-11.3v11.3zm30.7-1.7h8v-8h-8v8zm-1.2 1.2h10.4v-10.4h-10.4v10.4zm16-1.5h7.4v-7.3h-7.4v7.3zm-1.2 1.2h9.8v-9.8h-9.8v9.8zm16.1-1.6h6.6v-6.6h-6.6v6.6zm-1.2 1.3h9v-9.1h-9v9.1zm15.8-1.4h6.5v-6.4h-6.5v6.4zm-1.2 1.3h9v-9h-9v9zm16-1.5h6v-6h-6v6zm-1.3 1.3h8.5v-8.5h-8.5v8.5zM439 124h5.2v-5.2H439v5.2zm-1.3 1.4h7.8v-7.9h-7.8v7.9zm16-1.6h4.8V119h-4.8v4.8zm-1.3 1.4h7.4v-7.5h-7.4v7.5zm31.1-2.1h3.3v-3.4h-3.3v3.4zm-1.3 1.3h6v-6h-6v6zm15.9-1.4h3.1v-3.1h-3.1v3.1zm-1.3 1.3h5.7v-5.7h-5.7v5.7zm16.2-1.7h2.3v-2.3H513v2.3zm-1.3 1.3h5v-5h-5v5zm16-1.5h2v-2h-2v2zm-1.3 1.3h4.6v-4.5h-4.6v4.5zm16.5-1.9h.7v-.7h-.7v.7zm-1.3 1.3h3.3v-3.3h-3.3v3.3zM33.4 137.6h3.3v-3.3h-3.3v3.3zm-1.3 1.3H38v-6h-6v6h.1zm43.8-.2h5.4v-5.5h-5.4v5.5zm-1.3 1.3h8v-8h-8v8zm15.4-1h6.2v-6H90v6.1-.1zm-1.3 1.3h8.8v-8.7h-8.8v8.7zm15.9-1.3h6v-6h-6v6zm-1.3 1.2h8.6v-8.6h-8.6v8.6zm15.5-.9h6.7v-6.7h-6.7v6.7zm-1.3 1.3h9.3v-9.3h-9.3v9.3zm30.1-1.1h7.2v-7.1h-7.2v7.1zm-1.3 1.3h9.8v-9.7h-9.8v9.7zm15.5-.9h7.8V132h-7.8v7.9zm-1.3 1.3h10.4v-10.5h-10.4v10.5zm15.5-1.1h8.4v-8.3H176v8.3zm-1.3 1.3h11v-11h-11v11zm16-1.4h8v-8h-8v8zm-1.3 1.3h10.7v-10.7h-10.7v10.7zm15.7-1.3h8.3v-8.2h-8.3v8.3-.1zm-1.3 1.4h11v-10.9h-11v10.9zm15.7-1.2h8.5v-8.5h-8.5v8.5zm-1.3 1.3h11.1v-11.1h-11v11.1h-.1zm15.4-.9h9.4v-9.3h-9.4v9.3zm-1.3 1.4h12v-12h-12v12zm16.1-1.7h8.8v-8.7h-8.8v8.7zm-1.3 1.3h11.4v-11.3h-11.4v11.3zm15.8-1.2h8.9v-8.9h-8.9v8.9zm-1.3 1.3h11.5v-11.5h-11.5v11.5zm15.7-1.2h9v-9h-9v9zm-1.3 1.3h11.7V130H276v11.8zm29.9-.8h10v-10h-10v10zm-1.3 1.3h12.6v-12.7h-12.6v12.7zm16-1.6h9.6v-9.5h-9.6v9.5zm-1.3 1.3h12.2v-12h-12.2v12zm30.3-1.2h9.7v-9.7h-9.7v9.7zm-1.3 1.3h12.3v-12.3h-12.3v12.3zm16-1.5h9.4v-9.3h-9.4v9.3zM363 142h12v-12h-12v12zm16.1-1.7h8.8v-8.7H379v8.7h.1zm-1.3 1.3h11.4v-11.3h-11.4v11.3zM394 140h8v-8h-8v8zm-1.3 1.3h10.6v-10.7h-10.6v10.7zm15.9-1.4h7.9v-8h-8v8h.1zm-1.3 1.3h10.5v-10.5h-10.5v10.5zm45.9-2.3h5.8V133h-5.8v5.9zm-1.3 1.3h8.4v-8.5H452v8.5h-.1zm16.1-1.7h5.2v-5.1H468v5.1zm-1.2 1.3h7.7v-7.7h-7.7v7.7zM483 138h4.3v-4.2H483v4.3-.1zm-1.3 1.4h6.9v-6.9h-6.9v6.9zm16.2-1.7h3.5v-3.5H498v3.5h-.1zm-1.3 1.3h6.1v-6h-6.1v6.1-.1zm31.2-2.2h1.8v-1.7h-1.8v1.7zm-1.3 1.3h4.4v-4.3h-4.4v4.3zm16.4-1.8h.7v-.7h-.7v.7zm-1.3 1.3h3.3v-3.3h-3.3v3.3zM33.4 152.1h3.3v-3.3h-3.3v3.3zm-1.3 1.3H38v-5.9h-6v6l.1-.1zm43.6-.1h5.8v-5.7h-5.8v5.7zm-1.3 1.3h8.4v-8.3h-8.4v8.3zm15.5-.9h6.5v-6.5h-6.5v6.5zm-1.3 1.3h9v-9h-9v9zm15.7-1.2h6.7v-6.7h-6.7v6.7zm-1.3 1.3h9.3v-9.3H103v9.3zm15.6-1.1h7v-7h-7v7zm-1.3 1.3h9.7v-9.7h-9.7v9.7zm15.7-1.1h7.4v-7.5H133v7.5zm-1.4 1.3h10.1v-10.1h-10.1v10.1zm15.7-1.2h7.7v-7.7h-7.7v7.7zm-1.3 1.3h10.3v-10.3H146v10.3zm15.6-1h8.2v-8.2h-8.2v8.2zm-1.3 1.3h10.8V145h-10.8v10.9zm15.7-1.2h8.4v-8.4H176v8.4zm-1.3 1.3h11v-11h-11v11zm15.7-1.2h8.7V146h-8.7v8.8zm-1.3 1.3h11.3v-11.3H189v11.3h.1zm15.7-1.1h9v-9h-9v9zm-1.3 1.2H215v-11.5h-11.5v11.5zm15.7-1.2h9.2v-9h-9.2v9.1-.1zm-1.3 1.4h11.8v-11.8h-11.8v11.8zm44.6-1.1h9.7v-9.7h-9.7v9.7zm-1.3 1.3h12.3v-12.3h-12.3v12.3zm15.8-1.2h9.8v-9.8H277v9.8zm-1.3 1.3H288v-12.4h-12.4v12.4h.1zm15.7-1.3h10v-9.9h-10v10-.1zm-1.3 1.3h12.6v-12.5H290v12.5h.1zm15.8-1.2h10v-10h-10v10zm-1.3 1.3h12.6V144h-12.6v12.8zm15.8-1.3h10v-10h-10v10zm-1.3 1.3h12.6V144h-12.6v12.8zm15.9-1.4h10v-10h-10v10zm-1.3 1.4h12.5v-12.6h-12.5v12.6zm15.9-1.4h9.8v-9.8h-9.8v9.8zm-1.3 1.3h12.4v-12.4h-12.4v12.4zM379 155h9v-9h-9v9zm-1.3 1.3h11.6v-11.6h-11.6v11.6zm16-1.5h8.6v-8.6h-8.6v8.6zm-1.3 1.3h11.2v-11.2h-11.2v11.2zm16.1-1.6h8.1v-8.1h-8.1v8.1zm-1.3 1.3h10.7v-10.7h-10.7v10.7zm16.1-1.6h7.5v-7.5h-7.5v7.5zm-1.3 1.3h10.1v-10.1H422v10.1zm31-2h6.2v-6.1H453v6.1zm-1.3 1.3h8.8v-8.7h-8.8v8.8-.1zm16.3-1.7h5.3v-5.3H468v5.3zm-1.3 1.3h7.9v-7.9h-8v8l.1-.1zm16.2-1.7h4.5v-4.5h-4.5v4.5zm-1.3 1.3h7.1v-7h-7.1v7zm16.2-1.7h3.7v-3.7h-3.7v3.7zm-1.3 1.3h6.3v-6.3h-6.3v6.3zm16.3-1.7h2.8V149h-2.8v2.9zm-1.3 1.3h5.4v-5.5h-5.4v5.5zm29.9-.9h3.6v-3.6h-3.6v3.6zm1.3-1.3h1v-1h-1v1zM33.3 166.7h3.5v-3.5h-3.5v3.5zM32 168h6v-6h-6v6zm15.5-1h4v-4h-4v4zm-1.3 1.3H53v-6.6h-6.7v6.6h-.1zm29.5-.5h5.7v-5.7h-5.7v5.7zm-1.3 1.3h8.3v-8.3h-8.3v8.3zm29.8-.7h6.8v-6.8h-6.8v6.8zm-1.3 1.3h9.4v-9.4H103v9.4h-.1zm15.7-1.2h7.1v-7h-7.1v7zm-1.3 1.4h9.7V160h-9.7v9.9zm15.6-1.1h7.6v-7.6h-7.6v7.6zm-1.4 1.3h10.3V160h-10.3v10.1zm15.8-1.1h7.8v-8h-7.8v8zm-1.3 1.2h10.4v-10.5H146v10.5zm15.6-1.2h8.2v-8h-8.2v8zm-1.3 1.4h10.8v-10.8h-10.8v10.8zm15.6-1.1h8.7v-8.7h-8.7v8.7zm-1.3 1.4h11.3v-11.4h-11.3v11.4zm30.1-1.1h9.2v-9.2h-9.2v9.2zm-1.4 1.3h11.9v-11.8h-11.9v11.8zm15.7-1.2h9.5v-9.5H219v9.5zm-1.3 1.3H230v-12h-12.2v12h-.1zm15.8-1.2h9.7v-9.7h-9.7v9.7zm-1.3 1.3h12.3v-12.3h-12.3v12.3zm59.1-1h10.2V160h-10.2v10.1zm-1.3 1.3h12.8v-12.8H290v12.8zm15.7-1.2h10.4v-10.4h-10.4v10.4zm-1.3 1.3h13v-13h-13v13zm15.8-1.3h10.4v-10.4h-10.4v10.4zm-1.3 1.3h13v-13h-13v13zm15.9-1.4H345v-10.3h-10.3v10.3h.1zm-1.3 1.3h13v-12.9h-13v13-.1zm15.9-1.4h10.1v-10h-10.1v10zm-1.3 1.4h12.7v-12.8h-12.7v12.8zm16-1.5h9.8V160H364v9.8l.1.1zm-1.3 1.3h12.4v-12.4h-12.4v12.4zm16-1.5h9.4v-9.4h-9.4v9.4zm-1.3 1.3h12v-12h-12v12zm16.1-1.6h8.9v-8.9h-9v9l.1-.1zm-1.3 1.3h11.5v-11.5h-11.5v11.5zm16-1.5h8.5v-8.4h-8.5v8.4zm-1.3 1.3h11v-11h-11v11zm16.2-1.6h7.8V161h-7.8v7.9zm-1.3 1.3h10.4v-10.4h-10.4v10.4zm31.1-2h6.3v-6.4h-6.4v6.4h.1zm-1.4 1.3h9v-9h-9v9zm16.2-1.7h5.6v-5.6h-5.6v5.6zm-1.3 1.3h8.2v-8.2h-8.2v8.2zm31.2-2.1h4v-4h-4v4zm-1.3 1.3h6.5v-6.6h-6.5v6.6zm16.3-1.8h3v-3h-3v3zm-1.3 1.3h5.6v-5.6h-5.6v5.6zm16.3-1.8h2v-2h-2v2zm-1.3 1.3h4.6v-4.6h-4.6v4.6zm14.9-.4h3.8V163h-3.8v3.9zm1.4-1.3h1v-1.2h-1v1.2zM47.6 181.5h4v-4h-4v4zm-1.3 1.3h6.5v-6.6h-6.5v6.6zm15.6-1.1h4.4v-4.4h-4.4v4.4zm-1.4 1.3h7.1v-7h-7v7h-.1zm15.4-.8h5.4v-5.4h-5.4v5.4zm-1.3 1.3h8v-8h-8v8zm15.4-.9h6.2v-6.2H90v6.2zm-1.3 1.3h8.8V175h-8.8v8.9zm30.1-1h6.7V176h-6.7v6.9zm-1.3 1.3h9.3v-9.4h-9.3v9.4zm15.5-1.1h7.3V176H133v7.2-.1zm-1.3 1.4h10v-10h-10v10zm30.1-1.1h7.8v-7.8h-7.8v7.8zm-1.3 1.3h10.4v-10.4h-10.4v10.4zm15.5-1h8.4v-8.4H176v8.4zm-1.3 1.3h11v-11h-11v11zm15.7-1.1h8.7V175h-8.7v8.9zm-1.3 1.3h11.3v-11.4h-11.3v11.4zm15.7-1.2h9v-9h-9v9zm-1.3 1.3H215v-11.6h-11.5v11.6zm15.7-1.2h9.2V175h-9.2v9.2-.1zm-1.3 1.3h11.8v-11.8H218v11.8h-.1zm30.1-1.1h9.6v-9.6H248v9.6zm-1.3 1.3H259v-12.2h-12.2v12.2h-.1zm15.8-1.2h9.7v-9.8h-9.7v9.8zm-1.3 1.3h12.3v-12.4h-12.3v12.4zm15.8-1.2h9.8v-10H277v10zm-1.4 1.3h12.5v-12.6h-12.5v12.6zm15.7-1.3h10.1v-10h-10v10h-.1zM290 186h12.7v-12.7H290V186zm15.8-1.4H316v-10.2h-10.2v10.2zm-1.3 1.3h12.8v-12.8h-12.8v12.8zm15.8-1.3h10.2v-10.2h-10.2v10.2zm-1.3 1.3h12.8v-12.8H319v12.8zm15.9-1.3H345v-10.2h-10v10.2h-.1zm-1.3 1.3h12.7V173h-12.7v13-.1zm15.9-1.4h10v-10h-10v10zm-1.3 1.3h12.6v-12.6h-12.6v12.6zm16-1.5h9.6v-9.6h-9.6v9.6zm-1.3 1.3H375v-12.2h-12.2v12.2h.1zM379 184h9v-9h-9v9zm-1.4 1.4h11.8v-11.8h-11.8v11.8zm16.1-1.5h8.7V175h-8.7v8.9zm-1.3 1.3h11.3v-11.4h-11.3v11.4zm16-1.6h8.3v-8.2h-8.3v8.2zm-1.3 1.3H418v-10.8h-11v10.8h.1zm16.2-1.6h7.6v-7.6h-7.6v7.6zm-1.3 1.3h10.2v-10.2H422v10.2zm16.1-1.6h7v-7h-7v7zm-1.3 1.3h9.5v-9.5h-9.5v9.5zm61-2.9h3.7v-3.7h-3.7v3.7zm-1.3 1.3h6.3v-6.4h-6.3v6.4zm16.3-1.7h2.8v-3h-2.8v3zm-1.3 1.2h5.4v-5.4h-5.4v5.4zm16.2-1.7h2v-2h-2v2zm-1.3 1.3h4.6v-4.6h-4.6v4.6zm16.6-2h.5v-.6h-.6v.6h.1zm-1.3 1.3h3v-3.2h-3v3.2z"/>
</svg>
